<svg xmlns="http://www.w3.org/2000/svg" viewBox="0 0 24 24" fill="currentColor">
  <path d="M12 2.25c-5.133 0-9.633 3.063-11.49 7.425a.75.75 0 001.32.55C3.58 6.5 7.475 4.004 12 4.004c4.525 0 8.42 2.5 10.17 6.221a.75.75 0 001.32-.55C21.633 5.313 17.133 2.25 12 2.25z" />
  <path fill-rule="evenodd" d="M12 2.25c-5.523 0-10 4.477-10 10s4.477 10 10 10 10-4.477 10-10-4.477-10-10-10zM12 4a8 8 0 100 16 8 8 0 000-16z" clip-rule="evenodd" opacity=".2"/>
  <path d="M16.303 8.247a.75.75 0 00-1.06-1.06L10.5 11.939 8.757 10.197a.75.75 0 00-1.06 1.06l2.25 2.25a.75.75 0 001.06 0l5.316-5.26z" />
</svg>
